HIERARCHY
ROOT Hips
{
    OFFSET 0.000000 0.000000 0.000000
    CHANNELS 6 Xposition Yposition Zposition Zrotation Xrotation Yrotation
    JOINT Spine
    {
        OFFSET -0.000000 14.517291 0.000000
        CHANNELS 3 Zrotation Xrotation Yrotation
        JOINT Spine1
        {
            OFFSET -0.000000 37.558300 0.000000
            CHANNELS 3 Zrotation Xrotation Yrotation
            JOINT Neck
            {
                OFFSET -0.000000 37.404057 3.400369
                CHANNELS 3 Zrotation Xrotation Yrotation
                JOINT Head
                {
                    OFFSET -0.000000 24.785618 -3.540803
                    CHANNELS 3 Zrotation Xrotation Yrotation
                    End Site
                    {
                        OFFSET -0.000000 35.408028 0.000000
                    }
                }
            }
            JOINT LeftShoulder
            {
                OFFSET 6.992933 33.973492 -0.192664
                CHANNELS 3 Zrotation Xrotation Yrotation
                JOINT LeftArm
                {
                    OFFSET 21.527611 0.000000 0.000000
                    CHANNELS 3 Zrotation Xrotation Yrotation
                    JOINT LeftForeArm
                    {
                        OFFSET 56.353916 0.000000 0.000000
                        CHANNELS 3 Zrotation Xrotation Yrotation
                        JOINT LeftHand
                        {
                            OFFSET 47.774071 0.000000 0.000000
                            CHANNELS 3 Zrotation Xrotation Yrotation
                            End Site
                            {
                                OFFSET 26.556021 0.000000 0.000000
                            }
                        }
                    }
                }
            }
            JOINT RightShoulder
            {
                OFFSET -7.065357 33.973492 -0.192664
                CHANNELS 3 Zrotation Xrotation Yrotation
                JOINT RightArm
                {
                    OFFSET -21.527611 0.000000 0.000000
                    CHANNELS 3 Zrotation Xrotation Yrotation
                    JOINT RightForeArm
                    {
                        OFFSET -56.353916 0.000000 0.000000
                        CHANNELS 3 Zrotation Xrotation Yrotation
                        JOINT RightHand
                        {
                            OFFSET -47.774071 0.000000 0.000000
                            CHANNELS 3 Zrotation Xrotation Yrotation
                            End Site
                            {
                                OFFSET -26.556021 0.000000 0.000000
                            }
                        }
                    }
                }
            }
        }
    }
    JOINT LeftUpLeg
    {
        OFFSET 17.704014 0.000000 0.000000
        CHANNELS 3 Zrotation Xrotation Yrotation
        JOINT LeftLeg
        {
            OFFSET -0.000000 -81.181816 0.000000
            CHANNELS 3 Zrotation Xrotation Yrotation
            JOINT LeftFoot
            {
                OFFSET -0.000000 -62.821102 0.000000
                CHANNELS 3 Zrotation Xrotation Yrotation
                JOINT LeftToeBase
                {
                    OFFSET -0.000000 -11.507608 26.556021
                    CHANNELS 3 Zrotation Xrotation Yrotation
                    End Site
                    {
                        OFFSET -0.000000 0.000000 7.081605
                    }
                }
            }
        }
    }
    JOINT RightUpLeg
    {
        OFFSET -17.704014 0.000000 0.000000
        CHANNELS 3 Zrotation Xrotation Yrotation
        JOINT RightLeg
        {
            OFFSET -0.000000 -81.181816 0.000000
            CHANNELS 3 Zrotation Xrotation Yrotation
            JOINT RightFoot
            {
                OFFSET -0.000000 -62.821102 0.000000
                CHANNELS 3 Zrotation Xrotation Yrotation
                JOINT RightToeBase
                {
                    OFFSET -0.000000 -11.507608 26.556021
                    CHANNELS 3 Zrotation Xrotation Yrotation
                    End Site
                    {
                        OFFSET -0.000000 0.000000 7.081605
                    }
                }
            }
        }
    }
}
MOTION
Frames:    5
Frame Time:    0.008333
-27.602976    169.400925    -23.723404    -14.243917    -23.012981    42.084347    2.791947    7.608766    -5.800621    -7.654659    7.701138    -1.356795    19.306599    5.314026    -1.288434    8.792399    -14.850576    -0.947679    8.129753    10.030004    -25.406704    -31.524813    14.077171    -59.935745    4.395103    -39.484398    -102.718605    -10.084214    -33.978867    -15.438178    7.166469    3.322191    -7.866193    26.476418    3.211481    28.188877    -27.491364    -14.190939    61.152702    -5.365780    0.851346    31.016233    28.822138    -3.923082    6.091874    -2.607207    27.954733    -18.684546    4.561614    -13.025506    31.255993    0.000000    0.000000    0.000000    -88.104897    -49.091888    -52.696693    6.698174    20.442131    -4.809664    13.078125    21.398397    -19.794277    0.000000    0.000000    0.000000    
-27.331123    169.345551    -23.751175    -14.145383    -22.988026    42.064594    2.775591    7.426298    -5.783809    -7.305442    7.754775    -1.373224    19.447824    5.145525    -1.172783    8.521978    -14.525531    -0.967990    8.247569    9.960594    -25.400595    -31.428591    14.179831    -60.025982    4.565117    -39.688885    -102.650543    -10.343485    -34.010460    -15.279045    7.223637    3.252882    -7.837873    26.425339    3.026848    28.202034    -27.454081    -14.106550    61.111210    -5.480243    0.859893    31.189348    28.659895    -3.773749    6.178058    -2.589830    27.941952    -18.643082    4.629726    -13.136987    31.188719    0.000000    0.000000    0.000000    -88.186127    -49.077232    -52.718567    6.678372    20.483341    -4.791027    13.069489    21.423506    -19.773237    0.000000    0.000000    0.000000    
-27.020470    169.287811    -23.766312    -14.013993    -22.980274    42.050556    2.766265    7.219725    -5.758549    -6.965125    7.862715    -1.383256    19.602449    5.059706    -1.092963    8.181080    -14.298901    -1.023054    8.367971    9.902888    -25.399982    -31.091782    14.434808    -60.188004    4.975057    -40.233173    -102.404457    -10.571161    -34.163681    -15.357738    7.287273    3.218580    -7.839186    26.351177    2.833549    28.265068    -27.432009    -14.017971    61.066040    -5.547203    0.898832    31.271671    28.483170    -3.582333    6.263945    -2.564974    27.943533    -18.660318    4.699389    -13.264635    31.164385    0.000000    0.000000    0.000000    -88.244705    -49.045982    -52.698032    6.672212    20.525501    -4.746640    13.084431    21.416502    -19.761312    0.000000    0.000000    0.000000    
-26.728401    169.223755    -23.783909    -13.895301    -22.966181    42.048538    2.774826    7.021018    -5.753423    -6.674410    7.958364    -1.397439    19.789755    4.910410    -0.997455    7.874140    -13.994472    -1.071876    8.535467    9.837575    -25.376085    -31.200216    14.359546    -60.246037    4.929946    -40.069798    -102.444389    -10.628751    -34.014881    -15.463138    7.421951    3.254402    -7.879779    26.223310    2.708834    28.424498    -27.508169    -14.038642    60.892097    -5.653273    0.827609    31.462532    28.320503    -3.433592    6.319974    -2.558380    27.980038    -18.663662    4.532018    -13.465643    31.167778    0.000000    0.000000    0.000000    -88.321953    -49.006706    -52.675034    6.672253    20.574289    -4.691197    13.093184    21.412483    -19.768066    0.000000    0.000000    0.000000    
-26.429451    169.162537    -23.812782    -13.764647    -22.950268    42.036697    2.778026    6.846899    -5.736630    -6.368018    8.035285    -1.410269    19.973265    4.808369    -0.915175    7.528141    -13.746729    -1.130928    8.704132    9.783175    -25.348740    -32.138775    13.600788    -60.093590    3.996851    -38.572773    -103.043121    -10.423046    -33.362175    -15.352612    7.494918    3.214897    -7.853569    26.179361    2.525409    28.462887    -27.434254    -13.985869    60.860641    -5.588748    0.837461    31.558496    28.139982    -3.270080    6.354432    -2.559587    28.002684    -18.640415    4.826914    -13.520320    31.131069    0.000000    0.000000    0.000000    -88.385162    -48.982464    -52.619358    6.664907    20.609648    -4.668150    13.068108    21.417564    -19.721632    0.000000    0.000000    0.000000    
